<svg id="Capa_1" enable-background="new 0 0 512 512" height="512" viewBox="0 0 512 512" width="512" xmlns="http://www.w3.org/2000/svg"><g><g><path d="m437 211h-60c-8.284 0-15-6.716-15-15s6.716-15 15-15h60c8.284 0 15 6.716 15 15s-6.716 15-15 15z" fill="#525cdd"/></g><g><path d="m437 331h-60c-8.284 0-15-6.716-15-15s6.716-15 15-15h60c8.284 0 15 6.716 15 15s-6.716 15-15 15z" fill="#525cdd"/></g><g><path d="m361.16 482h-75.16c-8.284 0-15-6.716-15-15v-90c0-8.284 6.716-15 15-15s15 6.716 15 15v75h60.16c8.284 0 15 6.716 15 15s-6.716 15-15 15z" fill="#525cdd"/></g><g><path d="m286 150c-8.284 0-15-6.716-15-15v-90c0-8.284 6.716-15 15-15h75.16c8.284 0 15 6.716 15 15s-6.716 15-15 15h-60.16v75c0 8.284-6.716 15-15 15z" fill="#525cdd"/></g><g><path d="m135 211h-60c-8.284 0-15-6.716-15-15s6.716-15 15-15h60c8.284 0 15 6.716 15 15s-6.716 15-15 15z" fill="#4793ff"/></g><g><path d="m135 331h-60c-8.284 0-15-6.716-15-15s6.716-15 15-15h60c8.284 0 15 6.716 15 15s-6.716 15-15 15z" fill="#4793ff"/></g><g><path d="m226 482h-75.16c-8.284 0-15-6.716-15-15s6.716-15 15-15h60.16v-75c0-8.284 6.716-15 15-15s15 6.716 15 15v90c0 8.284-6.716 15-15 15z" fill="#4793ff"/></g><g><path d="m226 150c-8.284 0-15-6.716-15-15v-75h-60.16c-8.284 0-15-6.716-15-15s6.716-15 15-15h75.16c8.284 0 15 6.716 15 15v90c0 8.284-6.716 15-15 15z" fill="#4793ff"/></g><g><path d="m392 135v242c0 8.28-6.72 15-15 15h-242c-8.28 0-15-6.72-15-15v-242c0-8.28 6.72-15 15-15h242c8.28 0 15 6.72 15 15z" fill="#5e54ac"/></g><path d="m392 135v242c0 8.28-6.72 15-15 15h-121v-272h121c8.28 0 15 6.72 15 15z" fill="#453d81"/><g><circle cx="467" cy="196" fill="#fabe2c" r="45"/></g><g><circle cx="467" cy="316" fill="#fabe2c" r="45"/></g><g fill="#ffe14d"><circle cx="45" cy="196" r="45"/><circle cx="45" cy="316" r="45"/><circle cx="120.84" cy="467" r="45"/></g><circle cx="391.16" cy="467" fill="#fabe2c" r="45"/><circle cx="120.84" cy="45" fill="#ffe14d" r="45"/><g><circle cx="391.16" cy="45" fill="#fabe2c" r="45"/></g><g><path d="m322.06 202.98v106.04c0 7.19-5.85 13.04-13.04 13.04h-106.04c-7.19 0-13.04-5.85-13.04-13.04v-106.04c0-7.19 5.85-13.04 13.04-13.04h106.04c7.19 0 13.04 5.85 13.04 13.04z" fill="#f0f7ff"/></g><path d="m322.06 202.98v106.04c0 7.19-5.85 13.04-13.04 13.04h-53.02v-132.12h53.02c7.19 0 13.04 5.85 13.04 13.04z" fill="#dfe7f4"/></g></svg>