<svg width="112" height="38" viewBox="0 0 112 38" fill="none" xmlns="http://www.w3.org/2000/svg">
<path d="M53.65 28H50.15L42.225 16.025V28H38.725V10.525H42.225L50.15 22.525V10.525H53.65V28ZM63.2588 28.225C61.9255 28.225 60.7255 27.9333 59.6588 27.35C58.5921 26.75 57.7505 25.9083 57.1338 24.825C56.5338 23.7417 56.2338 22.4917 56.2338 21.075C56.2338 19.6583 56.5421 18.4083 57.1588 17.325C57.7921 16.2417 58.6505 15.4083 59.7338 14.825C60.8171 14.225 62.0255 13.925 63.3588 13.925C64.6921 13.925 65.9005 14.225 66.9838 14.825C68.0671 15.4083 68.9171 16.2417 69.5338 17.325C70.1671 18.4083 70.4838 19.6583 70.4838 21.075C70.4838 22.4917 70.1588 23.7417 69.5088 24.825C68.8755 25.9083 68.0088 26.75 66.9088 27.35C65.8255 27.9333 64.6088 28.225 63.2588 28.225ZM63.2588 25.175C63.8921 25.175 64.4838 25.025 65.0338 24.725C65.6005 24.4083 66.0505 23.9417 66.3838 23.325C66.7171 22.7083 66.8838 21.9583 66.8838 21.075C66.8838 19.7583 66.5338 18.75 65.8338 18.05C65.1505 17.3333 64.3088 16.975 63.3088 16.975C62.3088 16.975 61.4671 17.3333 60.7838 18.05C60.1171 18.75 59.7838 19.7583 59.7838 21.075C59.7838 22.3917 60.1088 23.4083 60.7588 24.125C61.4255 24.825 62.2588 25.175 63.2588 25.175ZM77.1262 17.025V23.725C77.1262 24.1917 77.2345 24.5333 77.4512 24.75C77.6845 24.95 78.0678 25.05 78.6012 25.05H80.2262V28H78.0262C75.0762 28 73.6012 26.5667 73.6012 23.7V17.025H71.9512V14.15H73.6012V10.725H77.1262V14.15H80.2262V17.025H77.1262ZM84.5186 12.5C83.9019 12.5 83.3852 12.3083 82.9686 11.925C82.5686 11.525 82.3686 11.0333 82.3686 10.45C82.3686 9.86667 82.5686 9.38333 82.9686 9C83.3852 8.6 83.9019 8.4 84.5186 8.4C85.1352 8.4 85.6436 8.6 86.0436 9C86.4602 9.38333 86.6686 9.86667 86.6686 10.45C86.6686 11.0333 86.4602 11.525 86.0436 11.925C85.6436 12.3083 85.1352 12.5 84.5186 12.5ZM86.2436 14.15V28H82.7436V14.15H86.2436ZM96.0516 17.025H93.6266V28H90.0766V17.025H88.5016V14.15H90.0766V13.45C90.0766 11.75 90.5599 10.5 91.5266 9.7C92.4932 8.9 93.9516 8.525 95.9016 8.575V11.525C95.0516 11.5083 94.4599 11.65 94.1266 11.95C93.7932 12.25 93.6266 12.7917 93.6266 13.575V14.15H96.0516V17.025ZM111.57 14.15L102.995 34.55H99.2697L102.27 27.65L96.7197 14.15H100.645L104.22 23.825L107.845 14.15H111.57Z" fill="white"/>
<circle cx="14.5" cy="19.5" r="14.5" fill="white"/>
<path d="M26 19.5C26 25.8513 20.8513 31 14.5 31C8.14873 31 3 25.8513 3 19.5C3 13.1487 8.14873 8.5 14.5 8.5C7 31.5 26 13.1487 26 19.5Z" fill="black"/>
</svg>
