<svg width="111" height="38" viewBox="0 0 111 38" fill="none" xmlns="http://www.w3.org/2000/svg">
<path d="M50.25 28H45.975L38.825 17.175V28H34.55V10.45H38.825L45.975 21.325V10.45H50.25V28ZM59.6988 28.2C58.3322 28.2 57.0988 27.9083 55.9988 27.325C54.9155 26.7417 54.0572 25.9083 53.4238 24.825C52.8072 23.7417 52.4988 22.475 52.4988 21.025C52.4988 19.5917 52.8155 18.3333 53.4488 17.25C54.0822 16.15 54.9488 15.3083 56.0488 14.725C57.1488 14.1417 58.3822 13.85 59.7488 13.85C61.1155 13.85 62.3488 14.1417 63.4488 14.725C64.5488 15.3083 65.4155 16.15 66.0488 17.25C66.6822 18.3333 66.9988 19.5917 66.9988 21.025C66.9988 22.4583 66.6738 23.725 66.0238 24.825C65.3905 25.9083 64.5155 26.7417 63.3988 27.325C62.2988 27.9083 61.0655 28.2 59.6988 28.2ZM59.6988 24.5C60.5155 24.5 61.2072 24.2 61.7738 23.6C62.3572 23 62.6488 22.1417 62.6488 21.025C62.6488 19.9083 62.3655 19.05 61.7988 18.45C61.2488 17.85 60.5655 17.55 59.7488 17.55C58.9155 17.55 58.2238 17.85 57.6738 18.45C57.1238 19.0333 56.8488 19.8917 56.8488 21.025C56.8488 22.1417 57.1155 23 57.6488 23.6C58.1988 24.2 58.8822 24.5 59.6988 24.5ZM77.0418 24.375V28H74.8668C73.3168 28 72.1085 27.625 71.2418 26.875C70.3751 26.1083 69.9418 24.8667 69.9418 23.15V17.6H68.2418V14.05H69.9418V10.65H74.2168V14.05H77.0168V17.6H74.2168V23.2C74.2168 23.6167 74.3168 23.9167 74.5168 24.1C74.7168 24.2833 75.0501 24.375 75.5168 24.375H77.0418ZM81.573 12.6C80.823 12.6 80.2064 12.3833 79.723 11.95C79.2564 11.5 79.023 10.95 79.023 10.3C79.023 9.63333 79.2564 9.08333 79.723 8.65C80.2064 8.2 80.823 7.975 81.573 7.975C82.3064 7.975 82.9064 8.2 83.373 8.65C83.8564 9.08333 84.098 9.63333 84.098 10.3C84.098 10.95 83.8564 11.5 83.373 11.95C82.9064 12.3833 82.3064 12.6 81.573 12.6ZM83.698 14.05V28H79.423V14.05H83.698ZM93.7961 17.6H91.4961V28H87.2211V17.6H85.6711V14.05H87.2211V13.65C87.2211 11.9333 87.7128 10.6333 88.6961 9.75C89.6794 8.85 91.1211 8.4 93.0211 8.4C93.3378 8.4 93.5711 8.40833 93.7211 8.425V12.05C92.9044 12 92.3294 12.1167 91.9961 12.4C91.6628 12.6833 91.4961 13.1917 91.4961 13.925V14.05H93.7961V17.6ZM110.055 14.05L101.305 34.625H96.7049L99.9049 27.525L94.2299 14.05H99.0049L102.23 22.775L105.43 14.05H110.055Z" fill="white"/>
<circle cx="14.5" cy="19.5" r="14.5" fill="white"/>
<path d="M14.5 14L19.2631 22.25H9.73686L14.5 14Z" fill="black"/>
</svg>
